<?xml version="1.0" encoding="utf-8"?>
<!-- Generator: Adobe Illustrator 22.1.0, SVG Export Plug-In . SVG Version: 6.00 Build 0)  -->
<svg version="1.1" id="レイヤー_1" xmlns="http://www.w3.org/2000/svg" xmlns:xlink="http://www.w3.org/1999/xlink" x="0px"
	 y="0px" viewBox="0 0 40 40" style="enable-background:new 0 0 40 40;" xml:space="preserve">
<style type="text/css">
	.st0{fill:#736357;}
	.st1{fill:#FFFFFF;}
</style>
<title>アセット 1</title>
<g id="レイヤー_2_1_">
	<g id="contents">
		<rect class="st0" width="40" height="40"/>
		<path class="st1" d="M27,32.5c-1.1,0.7-2.4,1-3.7,1c-4,0-6.1-2.5-6.2-5.8c-4-0.8-7.3-4.3-7.3-10.2c0-6.7,4.4-10.4,9.2-10.4
			s9.2,3.6,9.2,10.4c0,5.9-3.4,9.5-7.6,10.3c0,2.8,1.5,4.5,4,4.5c0.7,0,1.5-0.1,2.1-0.4L27,32.5z M19,26.8c3.6,0,5.3-4.1,5.3-9.3
			S22.6,8.2,19,8.2s-5.2,4.2-5.2,9.3S15.4,26.8,19,26.8z"/>
	</g>
</g>
</svg>
